<svg width="82" height="82" viewBox="0 0 82 82" fill="none" xmlns="http://www.w3.org/2000/svg">
<path fill-rule="evenodd" clip-rule="evenodd" d="M-0.00012207 0H81.9999V82H-0.00012207V0ZM1.36654 1.36667H80.6332V80.6333H1.36654V1.36667Z" fill="#23D30E"/>
<path fill-rule="evenodd" clip-rule="evenodd" d="M54.6846 53.2934C60.2659 53.2934 64.61 51.7493 67.7169 48.661C70.8238 45.5727 72.3772 41.1635 72.3772 35.4336V13.5551H63.4472V35.0985C63.4472 38.7081 62.7029 41.3594 61.2146 43.0525C59.7262 44.7455 57.5681 45.592 54.7404 45.592C48.9362 45.592 46.0341 42.0944 46.0339 35.0993V13.5551H36.9923V35.4336C36.9923 41.1637 38.5458 45.5729 41.6526 48.661C44.7595 51.7491 49.1035 53.2933 54.6846 53.2934Z" fill="#028C69"/>
<path fill-rule="evenodd" clip-rule="evenodd" d="M45.7737 37.052H39.411V29.7406H30.8718V37.052H20.3791L37.4575 13.5551H27.9695L9.55151 38.3358V44.4191H30.5927V52.6235H39.411V44.4191H45.7737V37.052Z" fill="#3ACB27"/>
<path fill-rule="evenodd" clip-rule="evenodd" d="M19.0313 68.7901H20.1826L17.0534 65.0017L19.9956 61.9021H18.8749L15.1357 65.7495V61.9021H14.1517V68.7901H15.1357V67.009L16.3952 65.7298L19.0313 68.7901ZM23.0952 68.8491C23.5814 68.8573 24.0613 68.7386 24.4876 68.5047C24.89 68.2827 25.2236 67.9541 25.4519 67.5552C25.6811 67.1339 25.8012 66.662 25.8012 66.1825C25.8012 65.7029 25.6811 65.231 25.4519 64.8098C25.2243 64.4115 24.8904 64.0845 24.4876 63.8652C24.0565 63.642 23.5782 63.5255 23.0927 63.5255C22.6073 63.5255 22.129 63.642 21.6979 63.8652C21.293 64.0833 20.9572 64.4106 20.7287 64.8098C20.4994 65.231 20.3793 65.7029 20.3793 66.1825C20.3793 66.662 20.4994 67.1339 20.7287 67.5552C20.9579 67.9551 21.2933 68.2838 21.6979 68.5047C22.1261 68.7382 22.6075 68.8568 23.0952 68.8491ZM23.0952 68.0225C22.7798 68.0276 22.4688 67.9478 22.1948 67.7913C21.9293 67.637 21.7117 67.4122 21.5662 67.1419C21.4141 66.8449 21.3348 66.5161 21.3348 66.1825C21.3348 65.8489 21.4141 65.52 21.5662 65.2231C21.7113 64.9536 21.9291 64.7303 22.1948 64.5785C22.4717 64.43 22.781 64.3522 23.0952 64.3522C23.4094 64.3522 23.7187 64.43 23.9956 64.5785C24.261 64.7294 24.4778 64.9531 24.6204 65.2231C24.7692 65.521 24.8467 65.8494 24.8467 66.1825C24.8467 66.5155 24.7692 66.8439 24.6204 67.1419C24.4773 67.4128 24.2608 67.6379 23.9956 67.7913C23.7216 67.9478 23.4106 68.0276 23.0952 68.0225ZM28.0152 64.4506V63.576H27.1099V68.7912H28.0545V66.1945C28.0233 65.7193 28.1804 65.2509 28.4919 64.8907C28.6497 64.7345 28.8385 64.613 29.0461 64.5342C29.2537 64.4554 29.4755 64.421 29.6973 64.4331C29.7696 64.4323 29.8418 64.4356 29.9138 64.443V63.5279C29.5105 63.5162 29.11 63.597 28.7428 63.764C28.4331 63.9104 28.178 64.1517 28.0146 64.4528L28.0152 64.4506ZM35.7396 66.212C35.7488 65.7259 35.6354 65.2454 35.41 64.8147C35.2002 64.4185 34.883 64.0894 34.4948 63.8652C34.0888 63.6347 33.6283 63.5175 33.1615 63.5257C32.6917 63.5183 32.2283 63.6355 31.8184 63.8652C31.4244 64.0885 31.1007 64.4174 30.8836 64.8147C30.6544 65.2334 30.5374 65.7042 30.5441 66.1814C30.5364 66.6634 30.657 67.1388 30.8934 67.559C31.1246 67.9642 31.468 68.294 31.8823 68.5085C32.2908 68.7089 32.7361 68.8233 33.1906 68.8444C33.645 68.8656 34.099 68.7931 34.5244 68.6315C34.8641 68.4956 35.1661 68.28 35.405 68.0029L34.8835 67.3928C34.6935 67.601 34.4604 67.7651 34.2003 67.8737C33.9403 67.9823 33.6596 68.0327 33.378 68.0215C32.9139 68.0375 32.459 67.8895 32.0933 67.6033C31.9242 67.468 31.7837 67.3004 31.6798 67.1104C31.5759 66.9204 31.5108 66.7116 31.4882 66.4963H35.7194C35.731 66.4015 35.7375 66.3063 35.739 66.2109L35.7396 66.212ZM33.1615 64.3227C33.5801 64.3102 33.9874 64.4601 34.298 64.7409C34.6039 65.0214 34.7949 65.4053 34.8343 65.8184H31.4879C31.5251 65.4032 31.7164 65.0171 32.0242 64.736C32.3361 64.4578 32.7429 64.3099 33.1607 64.3227H33.1615ZM38.7998 63.5257C38.3966 63.5234 37.9953 63.5814 37.6092 63.6979C37.259 63.8005 36.9317 63.9692 36.6449 64.1948L37.0385 64.9033C37.2607 64.7226 37.5142 64.5842 37.7863 64.4949C38.0775 64.394 38.3834 64.3425 38.6916 64.3424C39.0678 64.3151 39.4404 64.4311 39.7346 64.6671C39.8573 64.7884 39.9526 64.9346 40.0139 65.0959C40.0752 65.2572 40.1011 65.4297 40.09 65.6019V65.7889H38.5946C37.8657 65.7889 37.3343 65.9283 37.0005 66.2071C36.8409 66.3454 36.7134 66.5168 36.6267 66.7094C36.5401 66.9019 36.4964 67.1111 36.4988 67.3222C36.5011 67.5334 36.5494 67.7415 36.6403 67.9321C36.7312 68.1227 36.8625 68.2912 37.0251 68.426C37.4294 68.7252 37.925 68.8747 38.4273 68.8491C38.783 68.8578 39.1367 68.7927 39.4659 68.6578C39.7411 68.5439 39.9759 68.3503 40.14 68.1018V68.7906H41.0354V65.6418C41.0354 64.9401 40.8435 64.4116 40.4598 64.0565C39.9951 63.6744 39.402 63.4843 38.8018 63.5251L38.7998 63.5257ZM38.5834 68.1209C38.2839 68.1386 37.9868 68.0593 37.736 67.8946C37.6379 67.8245 37.5587 67.7312 37.5055 67.6231C37.4522 67.5149 37.4266 67.3952 37.431 67.2747C37.431 66.7372 37.8311 66.4682 38.6315 66.4678H40.0878V67.196C39.9784 67.4806 39.7777 67.7209 39.5171 67.8793C39.2342 68.0456 38.9103 68.1292 38.5823 68.1204L38.5834 68.1209ZM50.7161 68.7901H51.7493L48.6202 61.9021H47.646L44.5267 68.7901H45.5402L46.2979 67.0681H49.9584L50.7161 68.7901ZM46.6434 66.2809L48.1292 62.9057L49.6151 66.2809H46.6423H46.6434ZM56.4539 63.5749V66.271C56.4836 66.7378 56.328 67.1974 56.0209 67.5502C55.8667 67.704 55.6819 67.8238 55.4785 67.9017C55.2751 67.9797 55.0577 68.0141 54.8401 68.0029C54.6487 68.0154 54.4567 67.9873 54.277 67.9203C54.0972 67.8533 53.9336 67.749 53.7971 67.6142C53.5329 67.2931 53.4025 66.8825 53.433 66.4678V63.5749H52.4884V66.5761C52.4884 67.3232 52.6888 67.889 53.0897 68.2735C53.3124 68.4726 53.5721 68.626 53.8541 68.7247C54.136 68.8235 54.4347 68.8658 54.733 68.8491C55.0847 68.8524 55.4328 68.7768 55.7514 68.6277C56.0526 68.4887 56.3121 68.2733 56.5042 68.0029V68.7901H57.3996V63.5749H56.455H56.4539ZM61.8361 67.8061C61.6267 67.9723 61.3654 68.0594 61.0981 68.0521C60.987 68.0593 60.8755 68.0429 60.7712 68.0039C60.6669 67.9649 60.572 67.9041 60.4929 67.8257C60.3412 67.6447 60.2654 67.412 60.2814 67.1763V64.3522H61.7771V63.5749H60.2814V62.4334H59.3367V63.5749H58.4511V64.3522H59.3367V67.2157C59.3222 67.4363 59.3531 67.6576 59.4276 67.8658C59.5021 68.0739 59.6185 68.2646 59.7697 68.426C59.9348 68.5739 60.1278 68.6875 60.3373 68.7602C60.5467 68.8328 60.7686 68.863 60.9898 68.8491C61.2029 68.8495 61.4148 68.818 61.6185 68.7556C61.806 68.7019 61.9803 68.6098 62.1302 68.485L61.8361 67.8061ZM65.3293 68.8491C65.8155 68.8573 66.2954 68.7386 66.7217 68.5047C67.1241 68.2827 67.4577 67.9541 67.686 67.5552C67.9152 67.1339 68.0353 66.662 68.0353 66.1825C68.0353 65.7029 67.9152 65.231 67.686 64.8098C67.4584 64.4115 67.1245 64.0845 66.7217 63.8652C66.2906 63.642 65.8122 63.5255 65.3268 63.5255C64.8414 63.5255 64.3631 63.642 63.932 63.8652C63.5271 64.0833 63.1913 64.4106 62.9628 64.8098C62.7335 65.231 62.6134 65.7029 62.6134 66.1825C62.6134 66.662 62.7335 67.1339 62.9628 67.5552C63.192 67.9551 63.5274 68.2838 63.932 68.5047C64.3602 68.7382 64.8416 68.8568 65.3293 68.8491ZM65.3293 68.0225C65.0139 68.0276 64.7029 67.9478 64.4289 67.7913C64.1634 67.637 63.9458 67.4122 63.8003 67.1419C63.6482 66.8449 63.5689 66.5161 63.5689 66.1825C63.5689 65.8489 63.6482 65.52 63.8003 65.2231C63.9454 64.9536 64.1632 64.7303 64.4289 64.5785C64.7058 64.43 65.0151 64.3522 65.3293 64.3522C65.6435 64.3522 65.9528 64.43 66.2297 64.5785C66.4951 64.7294 66.7119 64.9531 66.8545 65.2231C67.0033 65.521 67.0808 65.8494 67.0808 66.1825C67.0808 66.5155 67.0033 66.8439 66.8545 67.1419C66.7114 67.4128 66.4949 67.6379 66.2297 67.7913C65.9557 67.9478 65.6447 68.0276 65.3293 68.0225Z" fill="white"/>
</svg>
